<?xml version="1.0" encoding="UTF-8"?>
<svg width="153px" height="150px" viewBox="0 0 153 150" version="1.1" xmlns="http://www.w3.org/2000/svg" xmlns:xlink="http://www.w3.org/1999/xlink">
    <title>Group 2</title>
    <defs>
        <rect id="path-1" x="0" y="0" width="153" height="150" rx="35"></rect>
    </defs>
    <g id="Page-1" stroke="none" stroke-width="1" fill="none" fill-rule="evenodd">
        <g id="Group-2">
            <mask id="mask-2" fill="white">
                <use xlink:href="#path-1"></use>
            </mask>
            <g id="Rectangle"></g>
            <g id="icon" mask="url(#mask-2)">
                <g transform="translate(-3.000000, -1.000000)" id="Group">
                    <g>
                        <g id="p0-link" fill="#000000" fill-rule="nonzero" stroke="#FAFAF7">
                            <path d="M0,0 L161,0 L161,154 L0,154 L0,0 Z M28.5820566,1.19744094 C27.5613774,1.75220472 26.3493208,1.57637795 25.173717,1.7673622 C23.563717,2.04625984 22.0873774,2.64043307 20.6323019,3.36496063 C18.6729623,3.81665354 16.950566,5.24751969 15.2524717,6.29944882 C12.0780377,8.78224409 9.35622642,11.9622835 7.31183019,15.430315 C6.6860566,16.4337402 6.06635849,17.3735039 5.66841509,18.498189 C4.76013208,21.1416535 3.75464151,23.5456299 3.51162264,26.3740157 C3.41137736,27.7290945 2.87977358,28.9659449 2.88279835,30.3179921 C2.91318868,60.457126 2.87977358,90.5325984 2.89496226,120.653543 C2.89496226,121.705472 3.18962264,122.660394 3.38403774,123.675945 C3.57237736,124.676339 3.4569434,125.707047 3.55415094,126.737756 C3.6270566,127.428937 3.99766038,128.132244 4.24675472,128.777953 C4.79962264,130.099685 4.85430189,131.469921 5.50741509,132.761339 C7.49713208,136.65378 9.60228302,140.291575 13.0197358,143.126024 C15.2980377,145.445118 18.0168113,147.242795 21.0211321,148.48874 C23.5120755,149.798346 26.0971887,150.192441 28.8281132,150.71689 C29.7242453,150.883622 30.6234151,151.110984 31.5195472,151.144331 C38.6551887,151.201929 45.7331132,151.153425 52.8566038,151.165551 C77.5655472,151.135236 102.268415,151.207992 126.977358,151.138268 C128.581283,151.141299 130.063698,151.232244 131.628132,150.792677 C133.001189,150.389488 134.389434,150.071181 135.780717,149.74378 C136.427755,149.549764 137.071755,149.346654 137.712717,149.143543 C137.779547,149.043504 137.84334,148.940433 137.91017,148.840394 C140.243151,148.485709 142.430321,146.98815 144.313717,145.630039 C146.148509,144.059724 148.047094,142.553071 149.526472,140.694764 C152.217906,137.754213 154.037509,134.104291 155.365,130.378583 C155.832811,128.383858 156.409981,126.58315 156.352264,124.588425 C156.631736,124.215551 156.911208,123.842677 157.193717,123.472835 C157.297,110.009961 157.239283,96.5288976 157.248396,83.0629921 C157.178528,81.235 157.32434,79.4282283 157.382057,77.6062992 C157.245358,75.5782283 157.433698,73.565315 157.263585,71.5402756 C157.105623,69.7122835 157.530906,67.9237008 157.372943,66.1017717 C157.218019,64.4647638 157.454962,62.8611024 157.403321,61.2240945 C157.366868,59.4021654 157.55217,57.5953937 157.439774,55.7764961 C157.303075,53.2330709 157.628113,50.7290551 157.394208,48.1977559 C157.208906,46.3849213 157.494453,44.5902756 157.415472,42.765315 C157.481633,39.8247638 157.488377,36.8933071 157.290925,33.9588189 C157.169415,32.2005512 157.339528,30.4362205 157.10866,28.7052362 C156.765396,26.6559449 156.978038,24.7097244 156.166962,22.7422835 C155.835849,21.0628346 155.07034,19.5895276 154.450642,18.0131496 C153.758038,16.2973228 152.570283,14.8998031 151.549604,13.2809843 C150.860038,12.1835827 150.07934,11.2225984 149.073849,10.395 C148.502755,9.96149606 148.217208,9.3915748 147.907358,8.76102362 C145.701962,7.58783465 144.085887,5.71437008 141.947321,4.45326772 C140.352509,3.51047244 138.842755,2.59496063 137.047453,2.14326772 C134.987868,1.62488189 133.055868,0.906417323 130.92034,0.727559055 C128.386868,0.360748031 125.880736,0.497165354 123.332075,0.460787402 C93.6655472,0.451692913 63.9929434,0.475944882 34.3264151,0.451692913 C32.3002453,0.351653543 30.5110189,0.606299213 28.5820566,1.19744094 Z" id="p0"></path>
                        </g>
                        <g id="p1-link" transform="translate(2.882785, 0.430479)" fill="#000000" fill-rule="nonzero" stroke="#DEAB75">
                            <path d="M31.4436296,0.0212134687 C61.1101579,0.0454654372 90.7827617,0.0212134687 120.44929,0.0303079569 C122.99795,0.0666859097 125.504082,-0.0697314132 128.037554,0.29707961 C130.173082,0.475937878 132.105082,1.19440245 134.164667,1.71278827 C135.959969,2.16448119 137.469724,3.079993 139.064535,4.02278827 C141.203101,5.28389063 142.819177,7.1573552 145.024573,8.33054418 C145.334422,8.96109536 145.619969,9.53101662 146.191064,9.96452056 C147.196554,10.792119 147.977252,11.7531032 148.666818,12.8505048 C149.687498,14.4693237 150.875252,15.8668434 151.567856,17.5826702 C152.187554,19.1590481 152.953064,20.6323552 153.284177,22.311804 C154.095252,24.279245 153.882611,26.2254654 154.225875,28.2747568 C154.456743,30.005741 154.28663,31.7700717 154.408139,33.5283395 C154.605592,36.4628276 154.598848,39.3942843 154.532686,42.3348355 C154.611667,44.1597961 154.32612,45.9544418 154.511422,47.7672765 C154.745328,50.2985757 154.42029,52.8025914 154.556988,55.3460166 C154.669384,57.1649143 154.484082,58.9716859 154.520535,60.793615 C154.572177,62.4306229 154.335233,64.0342843 154.490158,65.6712922 C154.64812,67.4932213 154.222837,69.281804 154.380799,71.1097961 C154.550913,73.1348355 154.362573,75.1477489 154.499271,77.1758198 C154.441554,78.9977489 154.295743,80.8045206 154.365611,82.6325127 C154.356498,96.0984182 154.414215,109.579481 154.310931,123.042355 C154.028422,123.412198 153.74895,123.785072 153.469479,124.157946 C153.527196,126.15267 152.950026,127.953379 152.482215,129.948103 C151.154724,133.673812 149.33512,137.323733 146.643686,140.264284 C145.164309,142.122591 143.265724,143.629245 141.430931,145.19956 C139.547535,146.55767 137.360365,148.055229 135.027384,148.409914 C134.960554,148.509954 134.896762,148.613024 134.829931,148.713064 C134.188969,148.916174 133.544969,149.119284 132.897931,149.3133 C131.506648,149.640702 130.118403,149.959009 128.745347,150.362198 C127.180913,150.801765 125.698498,150.71082 124.094573,150.707788 C99.3856296,150.777513 74.6827617,150.704757 49.9738183,150.735072 C42.8503277,150.722946 35.7724032,150.77145 28.6367617,150.713851 C27.7406296,150.680505 26.8414598,150.453143 25.9453277,150.28641 C23.2144032,149.761962 20.62929,149.367867 18.1383466,148.058261 C15.1340258,146.812316 12.4152522,145.014639 10.1369504,142.695544 C6.71949752,139.861095 4.61434658,136.2233 2.6246296,132.330859 C1.97151639,131.039442 1.91683714,129.669206 1.36396922,128.347473 C1.11487488,127.701765 0.744271107,126.998458 0.671365447,126.307276 C0.574157899,125.276568 0.689591862,124.245859 0.501252239,123.245465 C0.306837145,122.229914 0.0121767674,121.274993 0.0121767674,120.223064 C-0.00301191184,90.102119 0.0304031825,60.0266465 1.28568808e-05,29.8875127 C-0.00301191184,28.5354654 0.528591862,27.298615 0.628837145,25.9435363 C0.871856013,23.1151505 1.87734658,20.7111741 2.7856296,18.0677095 C3.18357299,16.9430245 3.80327111,16.0032607 4.42904469,14.9998355 C6.47344092,11.531804 9.19525224,8.35176465 12.3696862,5.86896937 C14.0677805,4.81704024 15.7901768,3.3861741 17.7495164,2.93448119 C19.2045919,2.20995363 20.6809315,1.6157804 22.2909315,1.33688276 C23.4665353,1.14589851 24.6785919,1.32172528 25.6992711,0.7669615 C27.6282334,0.175819768 29.4174598,-0.0788259014 31.4436296,0.0212134687 Z M72.9755541,46.560741 C72.7234221,44.9388906 72.6535541,43.4019221 71.9548749,41.8740481 C71.3139126,40.5098749 71.0891202,39.1335757 70.2081768,37.8936938 C68.9232145,35.9899143 67.7567239,33.9466859 65.7457428,32.724993 C63.6071768,31.1455835 61.1526862,30.0633395 58.4369504,30.3664891 C56.6720258,30.6696387 54.9830447,31.1152686 53.6251768,32.3490875 C51.38029,34.2104261 49.9647051,37.1631032 49.1536296,39.9066072 C48.6220258,42.2560166 48.5551956,44.7691269 48.8377051,47.1579458 C48.9045353,49.1223552 49.6821956,50.9897568 50.298856,52.9056623 C51.368139,55.5551898 52.6622145,58.5624339 54.8341956,60.4965284 C56.0249881,61.5514891 57.3190636,62.5185363 58.7012334,63.3067253 C60.016573,64.1161347 61.8604787,64.0494418 63.3489692,63.9372765 C66.0981202,63.5401505 68.6832334,61.8152292 70.3509504,59.6295206 C72.3011768,56.8951111 73.1487051,53.7878276 73.5618371,50.4986544 C73.6833466,49.1041662 73.1821202,47.9400717 72.9755541,46.560741 Z M90.2784975,31.3426308 C88.6776107,32.6855835 86.8063654,33.8163316 85.5730447,35.4624339 C84.5614787,36.7932607 83.7321768,38.2726308 82.9636296,39.7520009 C82.2254598,41.158615 82.0644598,42.6804261 81.1713654,44.0112528 C80.7308937,46.163615 80.7673466,48.3129458 80.7886107,50.4986544 C80.8250636,52.2205442 80.6427994,53.7696387 81.3354032,55.403615 C82.3165919,58.1986544 83.8384975,61.0543237 86.5086673,62.5640087 C87.5809881,63.1430245 88.8143088,63.9675914 90.0537051,63.9797174 C91.688007,64.0433788 93.459007,64.0615678 94.9748371,63.3794812 C98.289007,61.997119 100.928799,59.0929458 102.48412,55.9098749 C103.623271,53.881804 104.221705,51.7021584 104.890007,49.4921977 C105.418573,47.6338906 105.415535,45.7452686 105.421611,43.8293631 C105.400347,41.9255835 105.418573,40.1521584 104.69863,38.3514497 C103.96046,36.2263709 102.566139,34.4832607 100.983479,32.9190087 C99.3886673,31.4820796 97.4627428,30.2816072 95.2391202,30.3270796 C93.4802711,30.2209772 91.9006485,30.7484576 90.2784975,31.3426308 Z M29.0043277,70.5944418 C29.6635164,72.1586938 29.8305919,73.8138906 30.5292711,75.3569221 C31.1216296,76.7938513 32.0420636,78.0367646 32.6708749,79.4555048 C33.6945919,80.6862922 34.8124787,81.8170402 36.0670636,82.8204654 C37.0695164,83.6147174 38.0780447,84.6484576 39.3204787,85.0031426 C40.6054409,85.4184576 41.9511579,85.6731032 43.2756107,85.9277489 C45.0131956,85.6003473 46.6140824,85.4063316 48.1359881,84.4210954 C50.794007,82.7022371 52.3554032,79.7040875 52.5376673,76.5755835 C52.5801956,75.0264891 52.6986673,73.3167253 52.2673088,71.8221977 C51.9118937,70.5186544 51.8359504,69.2090481 51.6050824,67.8782213 C50.5145353,66.8838906 50.2593654,65.5682213 49.4543654,64.3920009 C47.6134975,61.7121584 45.3139315,59.3991269 42.2275919,58.2016859 C39.4723654,57.0436544 36.40729,56.7890087 33.7097805,58.2501898 C31.8506862,59.2475521 30.7206485,61.2301505 29.9034975,63.1005835 C29.1835541,65.5712528 28.5790447,67.9964497 29.0043277,70.5944418 Z M124.86312,67.778182 C124.847931,66.1533001 124.990705,64.6890875 124.249498,63.1824339 C123.335139,61.3150324 121.986384,59.4506623 120.215384,58.3077883 C119.370894,57.7287725 118.407931,57.6742056 117.414592,57.6196387 C115.403611,57.5771977 113.559705,57.4347174 111.694535,58.3502292 C109.20663,59.3627489 107.490309,61.1725521 105.77095,63.164245 C104.692554,64.4344418 103.887554,65.8562135 103.140271,67.338615 C102.22895,69.1544812 101.843158,71.237119 101.651781,73.2470009 C101.42395,75.2083788 101.411799,77.2455442 101.852271,79.1796387 C102.721064,82.0868434 105.051007,84.4847568 107.939894,85.4214891 C109.838479,85.9398749 111.940592,85.7701111 113.784498,85.115308 C116.360498,84.3119615 118.198328,82.5931032 119.996667,80.6711347 C121.986384,78.7431032 123.417158,76.3421584 124.331516,73.7381032 C124.911724,71.8888906 124.86312,69.703182 124.86312,67.778182 Z M43.8315164,109.564324 C44.2871768,110.883024 44.5636107,112.156253 45.3443088,113.335505 C46.1584221,114.578418 46.8297617,116.063851 47.9841013,116.988458 C49.2842522,118.049481 50.5114975,119.049875 52.1427617,119.550072 C53.0783843,119.828969 53.9319881,120.310977 54.8493843,120.623221 C56.037139,120.799048 57.279573,120.671725 58.4794787,120.714166 C60.8549881,120.805111 63.0360824,120.038143 65.4510824,119.559166 C67.0975353,119.240859 68.652856,118.625465 70.3053843,118.340505 C71.8333654,118.104048 72.9785919,117.234009 74.5794787,117.315859 C76.6421013,117.370426 78.8657239,117.097591 80.8584787,117.597788 C83.3797994,118.191962 85.7461956,118.504206 88.1611956,119.407591 C89.0087239,119.725899 89.85929,120.007828 90.7645353,120.107867 C92.1801202,120.259442 93.5258371,120.732355 94.9383843,120.871804 C97.7786673,121.062788 100.707045,120.247316 103.228365,118.986213 C105.205931,117.767552 107.037686,116.388221 108.295309,114.402591 C108.854252,113.453733 109.999479,112.55641 110.020743,111.434757 C110.327554,108.945899 110.336667,106.350938 110.136177,103.852985 C109.966064,101.339875 108.289233,99.2784576 107.065026,97.1776308 C105.898535,95.0222371 103.978686,93.567119 102.204648,91.7239694 C99.9476107,89.8110954 97.6055164,87.5950717 96.1352522,85.0001111 C94.4158937,82.1201898 92.4899692,79.3766859 90.6977051,76.5452686 C90.0415541,75.5418434 89.1727617,74.8840087 88.3647239,74.0230639 C87.7389504,73.3803867 87.2589881,72.7225521 86.4418371,72.3072371 C84.2728937,71.1492056 81.9034598,70.2245993 79.4641579,69.8577883 C77.9483277,69.697119 76.4021202,69.7334969 74.8832522,69.8244418 C73.0697239,69.9487332 71.5113654,70.5974733 69.8497239,71.2734969 C67.7597617,72.1374733 66.1041956,73.7593237 64.5488749,75.3538906 C62.8538183,77.2485757 61.5081013,79.3190875 60.2413654,81.5108591 C58.4126485,84.1270402 57.0669315,86.6462135 54.8129315,88.8925521 C54.162856,89.5200717 53.5067051,90.1415284 52.8809315,90.7933001 C51.4774975,92.2847961 49.7672522,93.1608985 48.5157051,94.8130639 C46.7325541,97.1564103 44.9433277,99.714993 44.2264221,102.610072 C43.5125541,104.783654 43.7221579,107.290702 43.8315164,109.564324 Z" id="p1"></path>
                        </g>
                        <g id="p2-link" transform="translate(51.556098, 30.745988)" fill="#000000" fill-rule="nonzero" stroke="#FAFAF7">
                            <path d="M9.76363824,0.0509801938 C12.4793741,-0.252169413 14.9338647,0.830074682 17.0724307,2.40948413 C19.0834118,3.63117704 20.2499024,5.67440539 21.5348647,7.57818492 C22.4158081,8.81806681 22.6406005,10.194366 23.2815628,11.5585392 C23.980242,13.0864133 24.0501099,14.6233818 24.302242,16.2452322 C24.5088081,17.6245629 25.0100345,18.7886574 24.888525,20.1831455 C24.475393,23.4723188 23.6278647,26.5796022 21.6776382,29.3140117 C20.0099213,31.4997204 17.4248081,33.2246416 14.6756571,33.6217676 C13.1871665,33.7339329 11.3432609,33.8006259 10.0279213,32.9912164 C8.64575145,32.2030274 7.35167598,31.2359802 6.16088353,30.1810196 C3.9889024,28.2469251 2.69482692,25.239681 1.62554391,22.5901534 C1.00888353,20.6742479 0.23122315,18.8068463 0.164392962,16.8424369 C-0.118116472,14.453618 -0.0512862835,11.9405078 0.48031749,9.5910983 C1.29139296,6.84759437 2.70697787,3.8949172 4.95186466,2.03357862 C6.30973258,0.799759721 7.99871372,0.3541298 9.76363824,0.0509801938 Z" id="p2"></path>
                        </g>
                        <g id="p3-link" transform="translate(83.660264, 30.743880)" fill="#000000" fill-rule="nonzero" stroke="#FAFAF7">
                            <path d="M14.4616416,0.0136792821 C16.6852642,-0.0317931589 18.6111887,1.16867928 20.2060001,2.60560842 C21.7886604,4.16986038 23.1829812,5.91297062 23.921151,8.03804936 C24.6410944,9.83875802 24.622868,11.6121832 24.6441321,13.5159627 C24.6380567,15.4318683 24.6410944,17.3204903 24.1125284,19.1787974 C23.4442265,21.388758 22.8457925,23.5684037 21.7066416,25.5964746 C20.1513208,28.7795454 17.5115284,31.6837187 14.1973586,33.0660809 C12.6815284,33.7481675 10.9105284,33.7299785 9.27622648,33.6663171 C8.03683025,33.6541911 6.8035095,32.8296242 5.73118874,32.2506084 C3.06101893,30.7409234 1.53911327,27.8852541 0.55792459,25.0902147 C-0.134679183,23.4562383 0.0475849675,21.9071438 0.0111321373,20.1852541 C-0.0101320137,17.9995454 -0.0465848439,15.8502147 0.393886854,13.6978525 C1.28698119,12.3670257 1.44798119,10.8452147 2.18615101,9.43860054 C2.95469818,7.95923046 3.78400006,6.47986038 4.7955661,5.14903361 C6.02888685,3.50293125 7.90013214,2.37218322 9.50101893,1.02923046 C11.1231699,0.435057235 12.7027925,-0.0924230801 14.4616416,0.0136792821 Z" id="p3"></path>
                        </g>
                        <g id="p4-link" transform="translate(31.745971, 57.672698)" fill="#000000" fill-rule="nonzero" stroke="#FAFAF7">
                            <path d="M13.3644064,0.959467634 C16.450746,2.15690858 18.750312,4.46994008 20.59118,7.14978259 C21.39618,8.32600307 21.6513498,9.64167236 22.7418969,10.6360031 C22.9727649,11.9668298 23.0487083,13.2764361 23.4041234,14.5799794 C23.8354818,16.074507 23.7170101,17.7842708 23.6744818,19.3333653 C23.4922177,22.4618692 21.9308215,25.4600188 19.2728026,27.1788771 C17.7508969,28.1641133 16.1500101,28.3581291 14.4124252,28.6855306 C13.0879724,28.430885 11.7422554,28.1762393 10.4572932,27.7609243 C9.2148592,27.4062393 8.2063309,26.3724991 7.20387807,25.5782472 C5.94929317,24.574822 4.83140637,23.4440739 3.80768939,22.2132865 C3.17887807,20.7945464 2.25844411,19.551633 1.66608562,18.1147039 C0.967406374,16.5716724 0.800330902,14.9164755 0.141142223,13.3522235 C-0.284140796,10.7542314 0.320368638,8.32903456 1.04031203,5.85836527 C1.85746298,3.9879322 2.98750071,2.00533378 4.84659505,1.00797157 C7.54410449,-0.453209531 10.60918,-0.198563862 13.3644064,0.959467634 Z" id="p4"></path>
                        </g>
                        <g id="p5-link" transform="translate(104.379136, 58.016168)" fill="#000000" fill-rule="nonzero" stroke="#FAFAF7">
                            <path d="M10.1981848,0.764540607 C12.0633546,-0.150971204 13.9072603,-0.0084908892 15.9182414,0.0339500557 C16.911581,0.0885169848 17.8745433,0.143083914 18.7190339,0.722099662 C20.4900339,1.86497368 21.8387886,3.72934376 22.7531471,5.59674533 C23.4943546,7.10339887 23.351581,8.56761147 23.3667697,10.1924934 C23.3667697,12.1174934 23.4153735,14.303202 22.8351659,16.1524146 C21.9208074,18.7564697 20.4900339,21.1574146 18.5003169,23.0854461 C16.7019772,25.0074146 14.8641471,26.7262729 12.2881471,27.5296193 C10.4442414,28.1844225 8.34212819,28.3541863 6.44354329,27.8358004 C3.55465649,26.8990682 1.2247131,24.5011548 0.355920644,21.5939501 C-0.0845510544,19.6598556 -0.072400111,17.6226902 0.155430078,15.6613123 C0.346807436,13.6514304 0.732599889,11.5687926 1.64392064,9.75292643 C2.39120366,8.27052486 3.19620366,6.84875321 4.27459989,5.57855635 C5.99395838,3.58686344 7.71027913,1.77706029 10.1981848,0.764540607 Z" id="p5"></path>
                        </g>
                        <g id="p6-link" transform="translate(46.598930, 70.177236)" fill="#000000" fill-rule="nonzero" stroke="#FAFAF7">
                            <path d="M31.167108,0.0776855069 C32.685976,-0.013259375 34.2321835,-0.0496373278 35.7480137,0.111031964 C38.1873156,0.477842987 40.5567495,1.40244929 42.7256929,2.56048078 C43.5428439,2.97579574 44.0228061,3.63363039 44.6485797,4.27630755 C45.4566175,5.13725244 46.3254099,5.79508708 46.9815609,6.79851228 C48.773825,9.6299296 50.6997495,12.3734335 52.419108,15.2533548 C53.8893722,17.8483154 56.2314665,20.0643391 58.4885043,21.9772131 C60.262542,23.8203627 62.182391,25.2754808 63.3488816,27.4308745 C64.5730892,29.5317013 66.2499193,31.5931186 66.4200326,34.1062288 C66.6205231,36.6041816 66.6114099,39.1991422 66.3045986,41.6880005 C66.2833344,42.809654 65.138108,43.7069768 64.5791646,44.6558351 C63.321542,46.641465 61.4897873,48.0207957 59.5122212,49.2394572 C56.9909005,50.5005595 54.0625231,51.316032 51.2222401,51.1250477 C49.8096929,50.9855989 48.463976,50.5126855 47.048391,50.3611107 C46.1431458,50.2610713 45.2925797,49.9791422 44.4450514,49.6608351 C42.0300514,48.7574493 39.6636552,48.4452052 37.1423344,47.851032 C35.1495797,47.3508351 32.9259571,47.6236698 30.8633344,47.5691028 C29.2624476,47.4872524 28.1172212,48.3572918 26.5892401,48.5937485 C24.9367118,48.8787091 23.381391,49.4941028 21.7349382,49.8124099 C19.3199382,50.2913863 17.1388439,51.0583548 14.7633344,50.9674099 C13.5634288,50.924969 12.3209948,51.0522918 11.1332401,50.876465 C10.2158439,50.5642209 9.3622401,50.0822131 8.42661746,49.8033154 C6.79535331,49.3031186 5.56810803,48.3027249 4.26795708,47.2417013 C3.11361746,46.317095 2.44227784,44.8316619 1.62816463,43.5887485 C0.847466517,42.4094965 0.571032555,41.1362682 0.115372177,39.8175674 C0.00601368677,37.5439453 -0.203590087,35.0368981 0.510277838,32.8633154 C1.2271835,29.9682367 3.01640991,27.409654 4.79956086,25.0663076 C6.05110803,23.4141422 7.76135331,22.5380398 9.16478727,21.0465438 C9.79056086,20.3947721 10.4467118,19.7733154 11.0967873,19.1457957 C13.3507873,16.8994572 14.6965043,14.3802839 16.5252212,11.7641028 C17.7919571,9.57233118 19.1376741,7.50181937 20.8327307,5.60713433 C22.3880514,4.0125674 24.0436175,2.390717 26.1335797,1.52674062 C27.7952212,0.850717003 29.3535797,0.201976845 31.167108,0.0776855069 Z" id="p6"></path>
                        </g>
                    </g>
                    <g>
                        <g id="p0-link" fill="#FAFAF7" fill-rule="nonzero">
                            <path d="M0,0 L161,0 L161,154 L0,154 L0,0 Z M28.5820566,1.19744094 C27.5613774,1.75220472 26.3493208,1.57637795 25.173717,1.7673622 C23.563717,2.04625984 22.0873774,2.64043307 20.6323019,3.36496063 C18.6729623,3.81665354 16.950566,5.24751969 15.2524717,6.29944882 C12.0780377,8.78224409 9.35622642,11.9622835 7.31183019,15.430315 C6.6860566,16.4337402 6.06635849,17.3735039 5.66841509,18.498189 C4.76013208,21.1416535 3.75464151,23.5456299 3.51162264,26.3740157 C3.41137736,27.7290945 2.87977358,28.9659449 2.88279835,30.3179921 C2.91318868,60.457126 2.87977358,90.5325984 2.89496226,120.653543 C2.89496226,121.705472 3.18962264,122.660394 3.38403774,123.675945 C3.57237736,124.676339 3.4569434,125.707047 3.55415094,126.737756 C3.6270566,127.428937 3.99766038,128.132244 4.24675472,128.777953 C4.79962264,130.099685 4.85430189,131.469921 5.50741509,132.761339 C7.49713208,136.65378 9.60228302,140.291575 13.0197358,143.126024 C15.2980377,145.445118 18.0168113,147.242795 21.0211321,148.48874 C23.5120755,149.798346 26.0971887,150.192441 28.8281132,150.71689 C29.7242453,150.883622 30.6234151,151.110984 31.5195472,151.144331 C38.6551887,151.201929 45.7331132,151.153425 52.8566038,151.165551 C77.5655472,151.135236 102.268415,151.207992 126.977358,151.138268 C128.581283,151.141299 130.063698,151.232244 131.628132,150.792677 C133.001189,150.389488 134.389434,150.071181 135.780717,149.74378 C136.427755,149.549764 137.071755,149.346654 137.712717,149.143543 C137.779547,149.043504 137.84334,148.940433 137.91017,148.840394 C140.243151,148.485709 142.430321,146.98815 144.313717,145.630039 C146.148509,144.059724 148.047094,142.553071 149.526472,140.694764 C152.217906,137.754213 154.037509,134.104291 155.365,130.378583 C155.832811,128.383858 156.409981,126.58315 156.352264,124.588425 C156.631736,124.215551 156.911208,123.842677 157.193717,123.472835 C157.297,110.009961 157.239283,96.5288976 157.248396,83.0629921 C157.178528,81.235 157.32434,79.4282283 157.382057,77.6062992 C157.245358,75.5782283 157.433698,73.565315 157.263585,71.5402756 C157.105623,69.7122835 157.530906,67.9237008 157.372943,66.1017717 C157.218019,64.4647638 157.454962,62.8611024 157.403321,61.2240945 C157.366868,59.4021654 157.55217,57.5953937 157.439774,55.7764961 C157.303075,53.2330709 157.628113,50.7290551 157.394208,48.1977559 C157.208906,46.3849213 157.494453,44.5902756 157.415472,42.765315 C157.481633,39.8247638 157.488377,36.8933071 157.290925,33.9588189 C157.169415,32.2005512 157.339528,30.4362205 157.10866,28.7052362 C156.765396,26.6559449 156.978038,24.7097244 156.166962,22.7422835 C155.835849,21.0628346 155.07034,19.5895276 154.450642,18.0131496 C153.758038,16.2973228 152.570283,14.8998031 151.549604,13.2809843 C150.860038,12.1835827 150.07934,11.2225984 149.073849,10.395 C148.502755,9.96149606 148.217208,9.3915748 147.907358,8.76102362 C145.701962,7.58783465 144.085887,5.71437008 141.947321,4.45326772 C140.352509,3.51047244 138.842755,2.59496063 137.047453,2.14326772 C134.987868,1.62488189 133.055868,0.906417323 130.92034,0.727559055 C128.386868,0.360748031 125.880736,0.497165354 123.332075,0.460787402 C93.6655472,0.451692913 63.9929434,0.475944882 34.3264151,0.451692913 C32.3002453,0.351653543 30.5110189,0.606299213 28.5820566,1.19744094 Z" id="p0"></path>
                        </g>
                        <g id="p1-link" transform="translate(2.882785, 0.430479)" fill="#DEAB75" fill-rule="nonzero">
                            <path d="M31.4436296,0.0212134687 C61.1101579,0.0454654372 90.7827617,0.0212134687 120.44929,0.0303079569 C122.99795,0.0666859097 125.504082,-0.0697314132 128.037554,0.29707961 C130.173082,0.475937878 132.105082,1.19440245 134.164667,1.71278827 C135.959969,2.16448119 137.469724,3.079993 139.064535,4.02278827 C141.203101,5.28389063 142.819177,7.1573552 145.024573,8.33054418 C145.334422,8.96109536 145.619969,9.53101662 146.191064,9.96452056 C147.196554,10.792119 147.977252,11.7531032 148.666818,12.8505048 C149.687498,14.4693237 150.875252,15.8668434 151.567856,17.5826702 C152.187554,19.1590481 152.953064,20.6323552 153.284177,22.311804 C154.095252,24.279245 153.882611,26.2254654 154.225875,28.2747568 C154.456743,30.005741 154.28663,31.7700717 154.408139,33.5283395 C154.605592,36.4628276 154.598848,39.3942843 154.532686,42.3348355 C154.611667,44.1597961 154.32612,45.9544418 154.511422,47.7672765 C154.745328,50.2985757 154.42029,52.8025914 154.556988,55.3460166 C154.669384,57.1649143 154.484082,58.9716859 154.520535,60.793615 C154.572177,62.4306229 154.335233,64.0342843 154.490158,65.6712922 C154.64812,67.4932213 154.222837,69.281804 154.380799,71.1097961 C154.550913,73.1348355 154.362573,75.1477489 154.499271,77.1758198 C154.441554,78.9977489 154.295743,80.8045206 154.365611,82.6325127 C154.356498,96.0984182 154.414215,109.579481 154.310931,123.042355 C154.028422,123.412198 153.74895,123.785072 153.469479,124.157946 C153.527196,126.15267 152.950026,127.953379 152.482215,129.948103 C151.154724,133.673812 149.33512,137.323733 146.643686,140.264284 C145.164309,142.122591 143.265724,143.629245 141.430931,145.19956 C139.547535,146.55767 137.360365,148.055229 135.027384,148.409914 C134.960554,148.509954 134.896762,148.613024 134.829931,148.713064 C134.188969,148.916174 133.544969,149.119284 132.897931,149.3133 C131.506648,149.640702 130.118403,149.959009 128.745347,150.362198 C127.180913,150.801765 125.698498,150.71082 124.094573,150.707788 C99.3856296,150.777513 74.6827617,150.704757 49.9738183,150.735072 C42.8503277,150.722946 35.7724032,150.77145 28.6367617,150.713851 C27.7406296,150.680505 26.8414598,150.453143 25.9453277,150.28641 C23.2144032,149.761962 20.62929,149.367867 18.1383466,148.058261 C15.1340258,146.812316 12.4152522,145.014639 10.1369504,142.695544 C6.71949752,139.861095 4.61434658,136.2233 2.6246296,132.330859 C1.97151639,131.039442 1.91683714,129.669206 1.36396922,128.347473 C1.11487488,127.701765 0.744271107,126.998458 0.671365447,126.307276 C0.574157899,125.276568 0.689591862,124.245859 0.501252239,123.245465 C0.306837145,122.229914 0.0121767674,121.274993 0.0121767674,120.223064 C-0.00301191184,90.102119 0.0304031825,60.0266465 1.28568808e-05,29.8875127 C-0.00301191184,28.5354654 0.528591862,27.298615 0.628837145,25.9435363 C0.871856013,23.1151505 1.87734658,20.7111741 2.7856296,18.0677095 C3.18357299,16.9430245 3.80327111,16.0032607 4.42904469,14.9998355 C6.47344092,11.531804 9.19525224,8.35176465 12.3696862,5.86896937 C14.0677805,4.81704024 15.7901768,3.3861741 17.7495164,2.93448119 C19.2045919,2.20995363 20.6809315,1.6157804 22.2909315,1.33688276 C23.4665353,1.14589851 24.6785919,1.32172528 25.6992711,0.7669615 C27.6282334,0.175819768 29.4174598,-0.0788259014 31.4436296,0.0212134687 Z M72.9755541,46.560741 C72.7234221,44.9388906 72.6535541,43.4019221 71.9548749,41.8740481 C71.3139126,40.5098749 71.0891202,39.1335757 70.2081768,37.8936938 C68.9232145,35.9899143 67.7567239,33.9466859 65.7457428,32.724993 C63.6071768,31.1455835 61.1526862,30.0633395 58.4369504,30.3664891 C56.6720258,30.6696387 54.9830447,31.1152686 53.6251768,32.3490875 C51.38029,34.2104261 49.9647051,37.1631032 49.1536296,39.9066072 C48.6220258,42.2560166 48.5551956,44.7691269 48.8377051,47.1579458 C48.9045353,49.1223552 49.6821956,50.9897568 50.298856,52.9056623 C51.368139,55.5551898 52.6622145,58.5624339 54.8341956,60.4965284 C56.0249881,61.5514891 57.3190636,62.5185363 58.7012334,63.3067253 C60.016573,64.1161347 61.8604787,64.0494418 63.3489692,63.9372765 C66.0981202,63.5401505 68.6832334,61.8152292 70.3509504,59.6295206 C72.3011768,56.8951111 73.1487051,53.7878276 73.5618371,50.4986544 C73.6833466,49.1041662 73.1821202,47.9400717 72.9755541,46.560741 Z M90.2784975,31.3426308 C88.6776107,32.6855835 86.8063654,33.8163316 85.5730447,35.4624339 C84.5614787,36.7932607 83.7321768,38.2726308 82.9636296,39.7520009 C82.2254598,41.158615 82.0644598,42.6804261 81.1713654,44.0112528 C80.7308937,46.163615 80.7673466,48.3129458 80.7886107,50.4986544 C80.8250636,52.2205442 80.6427994,53.7696387 81.3354032,55.403615 C82.3165919,58.1986544 83.8384975,61.0543237 86.5086673,62.5640087 C87.5809881,63.1430245 88.8143088,63.9675914 90.0537051,63.9797174 C91.688007,64.0433788 93.459007,64.0615678 94.9748371,63.3794812 C98.289007,61.997119 100.928799,59.0929458 102.48412,55.9098749 C103.623271,53.881804 104.221705,51.7021584 104.890007,49.4921977 C105.418573,47.6338906 105.415535,45.7452686 105.421611,43.8293631 C105.400347,41.9255835 105.418573,40.1521584 104.69863,38.3514497 C103.96046,36.2263709 102.566139,34.4832607 100.983479,32.9190087 C99.3886673,31.4820796 97.4627428,30.2816072 95.2391202,30.3270796 C93.4802711,30.2209772 91.9006485,30.7484576 90.2784975,31.3426308 Z M29.0043277,70.5944418 C29.6635164,72.1586938 29.8305919,73.8138906 30.5292711,75.3569221 C31.1216296,76.7938513 32.0420636,78.0367646 32.6708749,79.4555048 C33.6945919,80.6862922 34.8124787,81.8170402 36.0670636,82.8204654 C37.0695164,83.6147174 38.0780447,84.6484576 39.3204787,85.0031426 C40.6054409,85.4184576 41.9511579,85.6731032 43.2756107,85.9277489 C45.0131956,85.6003473 46.6140824,85.4063316 48.1359881,84.4210954 C50.794007,82.7022371 52.3554032,79.7040875 52.5376673,76.5755835 C52.5801956,75.0264891 52.6986673,73.3167253 52.2673088,71.8221977 C51.9118937,70.5186544 51.8359504,69.2090481 51.6050824,67.8782213 C50.5145353,66.8838906 50.2593654,65.5682213 49.4543654,64.3920009 C47.6134975,61.7121584 45.3139315,59.3991269 42.2275919,58.2016859 C39.4723654,57.0436544 36.40729,56.7890087 33.7097805,58.2501898 C31.8506862,59.2475521 30.7206485,61.2301505 29.9034975,63.1005835 C29.1835541,65.5712528 28.5790447,67.9964497 29.0043277,70.5944418 Z M124.86312,67.778182 C124.847931,66.1533001 124.990705,64.6890875 124.249498,63.1824339 C123.335139,61.3150324 121.986384,59.4506623 120.215384,58.3077883 C119.370894,57.7287725 118.407931,57.6742056 117.414592,57.6196387 C115.403611,57.5771977 113.559705,57.4347174 111.694535,58.3502292 C109.20663,59.3627489 107.490309,61.1725521 105.77095,63.164245 C104.692554,64.4344418 103.887554,65.8562135 103.140271,67.338615 C102.22895,69.1544812 101.843158,71.237119 101.651781,73.2470009 C101.42395,75.2083788 101.411799,77.2455442 101.852271,79.1796387 C102.721064,82.0868434 105.051007,84.4847568 107.939894,85.4214891 C109.838479,85.9398749 111.940592,85.7701111 113.784498,85.115308 C116.360498,84.3119615 118.198328,82.5931032 119.996667,80.6711347 C121.986384,78.7431032 123.417158,76.3421584 124.331516,73.7381032 C124.911724,71.8888906 124.86312,69.703182 124.86312,67.778182 Z M43.8315164,109.564324 C44.2871768,110.883024 44.5636107,112.156253 45.3443088,113.335505 C46.1584221,114.578418 46.8297617,116.063851 47.9841013,116.988458 C49.2842522,118.049481 50.5114975,119.049875 52.1427617,119.550072 C53.0783843,119.828969 53.9319881,120.310977 54.8493843,120.623221 C56.037139,120.799048 57.279573,120.671725 58.4794787,120.714166 C60.8549881,120.805111 63.0360824,120.038143 65.4510824,119.559166 C67.0975353,119.240859 68.652856,118.625465 70.3053843,118.340505 C71.8333654,118.104048 72.9785919,117.234009 74.5794787,117.315859 C76.6421013,117.370426 78.8657239,117.097591 80.8584787,117.597788 C83.3797994,118.191962 85.7461956,118.504206 88.1611956,119.407591 C89.0087239,119.725899 89.85929,120.007828 90.7645353,120.107867 C92.1801202,120.259442 93.5258371,120.732355 94.9383843,120.871804 C97.7786673,121.062788 100.707045,120.247316 103.228365,118.986213 C105.205931,117.767552 107.037686,116.388221 108.295309,114.402591 C108.854252,113.453733 109.999479,112.55641 110.020743,111.434757 C110.327554,108.945899 110.336667,106.350938 110.136177,103.852985 C109.966064,101.339875 108.289233,99.2784576 107.065026,97.1776308 C105.898535,95.0222371 103.978686,93.567119 102.204648,91.7239694 C99.9476107,89.8110954 97.6055164,87.5950717 96.1352522,85.0001111 C94.4158937,82.1201898 92.4899692,79.3766859 90.6977051,76.5452686 C90.0415541,75.5418434 89.1727617,74.8840087 88.3647239,74.0230639 C87.7389504,73.3803867 87.2589881,72.7225521 86.4418371,72.3072371 C84.2728937,71.1492056 81.9034598,70.2245993 79.4641579,69.8577883 C77.9483277,69.697119 76.4021202,69.7334969 74.8832522,69.8244418 C73.0697239,69.9487332 71.5113654,70.5974733 69.8497239,71.2734969 C67.7597617,72.1374733 66.1041956,73.7593237 64.5488749,75.3538906 C62.8538183,77.2485757 61.5081013,79.3190875 60.2413654,81.5108591 C58.4126485,84.1270402 57.0669315,86.6462135 54.8129315,88.8925521 C54.162856,89.5200717 53.5067051,90.1415284 52.8809315,90.7933001 C51.4774975,92.2847961 49.7672522,93.1608985 48.5157051,94.8130639 C46.7325541,97.1564103 44.9433277,99.714993 44.2264221,102.610072 C43.5125541,104.783654 43.7221579,107.290702 43.8315164,109.564324 Z" id="p1"></path>
                        </g>
                        <g id="p2-link" transform="translate(51.556098, 30.745988)" fill="#FAFAF7" fill-rule="nonzero">
                            <path d="M9.76363824,0.0509801938 C12.4793741,-0.252169413 14.9338647,0.830074682 17.0724307,2.40948413 C19.0834118,3.63117704 20.2499024,5.67440539 21.5348647,7.57818492 C22.4158081,8.81806681 22.6406005,10.194366 23.2815628,11.5585392 C23.980242,13.0864133 24.0501099,14.6233818 24.302242,16.2452322 C24.5088081,17.6245629 25.0100345,18.7886574 24.888525,20.1831455 C24.475393,23.4723188 23.6278647,26.5796022 21.6776382,29.3140117 C20.0099213,31.4997204 17.4248081,33.2246416 14.6756571,33.6217676 C13.1871665,33.7339329 11.3432609,33.8006259 10.0279213,32.9912164 C8.64575145,32.2030274 7.35167598,31.2359802 6.16088353,30.1810196 C3.9889024,28.2469251 2.69482692,25.239681 1.62554391,22.5901534 C1.00888353,20.6742479 0.23122315,18.8068463 0.164392962,16.8424369 C-0.118116472,14.453618 -0.0512862835,11.9405078 0.48031749,9.5910983 C1.29139296,6.84759437 2.70697787,3.8949172 4.95186466,2.03357862 C6.30973258,0.799759721 7.99871372,0.3541298 9.76363824,0.0509801938 Z" id="p2"></path>
                        </g>
                        <g id="p3-link" transform="translate(83.660264, 30.743880)" fill="#FAFAF7" fill-rule="nonzero">
                            <path d="M14.4616416,0.0136792821 C16.6852642,-0.0317931589 18.6111887,1.16867928 20.2060001,2.60560842 C21.7886604,4.16986038 23.1829812,5.91297062 23.921151,8.03804936 C24.6410944,9.83875802 24.622868,11.6121832 24.6441321,13.5159627 C24.6380567,15.4318683 24.6410944,17.3204903 24.1125284,19.1787974 C23.4442265,21.388758 22.8457925,23.5684037 21.7066416,25.5964746 C20.1513208,28.7795454 17.5115284,31.6837187 14.1973586,33.0660809 C12.6815284,33.7481675 10.9105284,33.7299785 9.27622648,33.6663171 C8.03683025,33.6541911 6.8035095,32.8296242 5.73118874,32.2506084 C3.06101893,30.7409234 1.53911327,27.8852541 0.55792459,25.0902147 C-0.134679183,23.4562383 0.0475849675,21.9071438 0.0111321373,20.1852541 C-0.0101320137,17.9995454 -0.0465848439,15.8502147 0.393886854,13.6978525 C1.28698119,12.3670257 1.44798119,10.8452147 2.18615101,9.43860054 C2.95469818,7.95923046 3.78400006,6.47986038 4.7955661,5.14903361 C6.02888685,3.50293125 7.90013214,2.37218322 9.50101893,1.02923046 C11.1231699,0.435057235 12.7027925,-0.0924230801 14.4616416,0.0136792821 Z" id="p3"></path>
                        </g>
                        <g id="p4-link" transform="translate(31.745971, 57.672698)" fill="#FAFAF7" fill-rule="nonzero">
                            <path d="M13.3644064,0.959467634 C16.450746,2.15690858 18.750312,4.46994008 20.59118,7.14978259 C21.39618,8.32600307 21.6513498,9.64167236 22.7418969,10.6360031 C22.9727649,11.9668298 23.0487083,13.2764361 23.4041234,14.5799794 C23.8354818,16.074507 23.7170101,17.7842708 23.6744818,19.3333653 C23.4922177,22.4618692 21.9308215,25.4600188 19.2728026,27.1788771 C17.7508969,28.1641133 16.1500101,28.3581291 14.4124252,28.6855306 C13.0879724,28.430885 11.7422554,28.1762393 10.4572932,27.7609243 C9.2148592,27.4062393 8.2063309,26.3724991 7.20387807,25.5782472 C5.94929317,24.574822 4.83140637,23.4440739 3.80768939,22.2132865 C3.17887807,20.7945464 2.25844411,19.551633 1.66608562,18.1147039 C0.967406374,16.5716724 0.800330902,14.9164755 0.141142223,13.3522235 C-0.284140796,10.7542314 0.320368638,8.32903456 1.04031203,5.85836527 C1.85746298,3.9879322 2.98750071,2.00533378 4.84659505,1.00797157 C7.54410449,-0.453209531 10.60918,-0.198563862 13.3644064,0.959467634 Z" id="p4"></path>
                        </g>
                        <g id="p5-link" transform="translate(104.379136, 58.016168)" fill="#FAFAF7" fill-rule="nonzero">
                            <path d="M10.1981848,0.764540607 C12.0633546,-0.150971204 13.9072603,-0.0084908892 15.9182414,0.0339500557 C16.911581,0.0885169848 17.8745433,0.143083914 18.7190339,0.722099662 C20.4900339,1.86497368 21.8387886,3.72934376 22.7531471,5.59674533 C23.4943546,7.10339887 23.351581,8.56761147 23.3667697,10.1924934 C23.3667697,12.1174934 23.4153735,14.303202 22.8351659,16.1524146 C21.9208074,18.7564697 20.4900339,21.1574146 18.5003169,23.0854461 C16.7019772,25.0074146 14.8641471,26.7262729 12.2881471,27.5296193 C10.4442414,28.1844225 8.34212819,28.3541863 6.44354329,27.8358004 C3.55465649,26.8990682 1.2247131,24.5011548 0.355920644,21.5939501 C-0.0845510544,19.6598556 -0.072400111,17.6226902 0.155430078,15.6613123 C0.346807436,13.6514304 0.732599889,11.5687926 1.64392064,9.75292643 C2.39120366,8.27052486 3.19620366,6.84875321 4.27459989,5.57855635 C5.99395838,3.58686344 7.71027913,1.77706029 10.1981848,0.764540607 Z" id="p5"></path>
                        </g>
                        <g id="p6-link" transform="translate(46.598930, 70.177236)" fill="#FAFAF7" fill-rule="nonzero">
                            <path d="M31.167108,0.0776855069 C32.685976,-0.013259375 34.2321835,-0.0496373278 35.7480137,0.111031964 C38.1873156,0.477842987 40.5567495,1.40244929 42.7256929,2.56048078 C43.5428439,2.97579574 44.0228061,3.63363039 44.6485797,4.27630755 C45.4566175,5.13725244 46.3254099,5.79508708 46.9815609,6.79851228 C48.773825,9.6299296 50.6997495,12.3734335 52.419108,15.2533548 C53.8893722,17.8483154 56.2314665,20.0643391 58.4885043,21.9772131 C60.262542,23.8203627 62.182391,25.2754808 63.3488816,27.4308745 C64.5730892,29.5317013 66.2499193,31.5931186 66.4200326,34.1062288 C66.6205231,36.6041816 66.6114099,39.1991422 66.3045986,41.6880005 C66.2833344,42.809654 65.138108,43.7069768 64.5791646,44.6558351 C63.321542,46.641465 61.4897873,48.0207957 59.5122212,49.2394572 C56.9909005,50.5005595 54.0625231,51.316032 51.2222401,51.1250477 C49.8096929,50.9855989 48.463976,50.5126855 47.048391,50.3611107 C46.1431458,50.2610713 45.2925797,49.9791422 44.4450514,49.6608351 C42.0300514,48.7574493 39.6636552,48.4452052 37.1423344,47.851032 C35.1495797,47.3508351 32.9259571,47.6236698 30.8633344,47.5691028 C29.2624476,47.4872524 28.1172212,48.3572918 26.5892401,48.5937485 C24.9367118,48.8787091 23.381391,49.4941028 21.7349382,49.8124099 C19.3199382,50.2913863 17.1388439,51.0583548 14.7633344,50.9674099 C13.5634288,50.924969 12.3209948,51.0522918 11.1332401,50.876465 C10.2158439,50.5642209 9.3622401,50.0822131 8.42661746,49.8033154 C6.79535331,49.3031186 5.56810803,48.3027249 4.26795708,47.2417013 C3.11361746,46.317095 2.44227784,44.8316619 1.62816463,43.5887485 C0.847466517,42.4094965 0.571032555,41.1362682 0.115372177,39.8175674 C0.00601368677,37.5439453 -0.203590087,35.0368981 0.510277838,32.8633154 C1.2271835,29.9682367 3.01640991,27.409654 4.79956086,25.0663076 C6.05110803,23.4141422 7.76135331,22.5380398 9.16478727,21.0465438 C9.79056086,20.3947721 10.4467118,19.7733154 11.0967873,19.1457957 C13.3507873,16.8994572 14.6965043,14.3802839 16.5252212,11.7641028 C17.7919571,9.57233118 19.1376741,7.50181937 20.8327307,5.60713433 C22.3880514,4.0125674 24.0436175,2.390717 26.1335797,1.52674062 C27.7952212,0.850717003 29.3535797,0.201976845 31.167108,0.0776855069 Z" id="p6"></path>
                        </g>
                    </g>
                </g>
            </g>
        </g>
    </g>
</svg>